<svg width="92" height="37" viewBox="0 0 92 37" fill="none" xmlns="http://www.w3.org/2000/svg">
<path fill-rule="evenodd" clip-rule="evenodd" d="M30.4564 27.1451L40.1282 18.3698L30.3196 9.74758C24.9024 4.98558 16.1809 5.05413 10.8392 9.90068C5.49744 14.7472 5.55865 22.5362 10.9759 27.2982C16.3931 32.0602 25.1146 31.9917 30.4564 27.1451ZM34.8711 5.61802C26.9048 -1.38474 14.0786 -1.28394 6.22335 5.84317C-1.63192 12.9703 -1.5419 24.425 6.42441 31.4278C14.3907 38.4306 27.2169 38.3298 35.0722 31.2026L49.2955 18.2978L34.8711 5.61802ZM68.1548 12.0089L61.3276 18.2032L68.2513 24.2895C72.0752 27.6509 78.2316 27.6025 82.0022 24.1814C85.7728 20.7603 85.7296 15.2622 81.9057 11.9008C78.0818 8.53939 71.9254 8.58778 68.1548 12.0089ZM63.6998 28.419C70.0728 34.0212 80.3339 33.9406 86.618 28.2389C92.9022 22.5373 92.8302 13.3734 86.4572 7.77123C80.0842 2.16907 69.8231 2.24971 63.539 7.95134L52.1603 18.2752L63.6998 28.419Z" fill="#0080C3"/>
</svg>
